<svg width="21" height="21" viewBox="0 0 21 21" fill="none" xmlns="http://www.w3.org/2000/svg">
<path fill-rule="evenodd" clip-rule="evenodd" d="M11.3386 18.8656C13.5772 18.8246 18.78 17.977 18.78 11.0218C18.78 4.06402 13.5466 3.18566 11.2954 3.13188C11.0942 3.12676 10.8624 3.1242 10.6383 3.1242H10.483C8.26736 3.14469 3.11544 3.94878 3.11544 10.968C3.11544 18.0026 8.31574 18.8374 10.5517 18.8681L10.814 18.8707C10.9999 18.8707 11.1807 18.8681 11.3386 18.8656ZM11.3234 2.01024C13.078 2.05122 19.898 2.74776 19.898 11.0243C19.898 19.3188 13.0653 19.9616 11.359 19.9949C11.196 19.9974 11.0076 20 10.8191 20C10.7249 20 10.6307 19.9974 10.539 19.9974C8.74359 19.9693 2 19.3163 2 10.9705C2 2.63508 8.67992 2.01536 10.4753 2H10.6383C10.8726 2 11.1145 2.00256 11.3234 2.01024ZM10.9465 14.1946C10.6383 14.1946 10.3862 13.9437 10.3862 13.6312V5.86172C10.3862 5.55186 10.6358 5.29834 10.9465 5.29834C11.2571 5.29834 11.5067 5.5493 11.5067 5.86172V13.6312C11.5042 13.9411 11.2546 14.1946 10.9465 14.1946ZM10.9465 14.9603C11.2979 14.9603 11.5831 15.2471 11.5857 15.6005C11.5857 15.9539 11.3004 16.2407 10.949 16.2433H10.9465C10.595 16.2433 10.3098 15.9565 10.3098 15.6005C10.3098 15.2471 10.595 14.9603 10.9465 14.9603Z" fill="#019DF4"/>
</svg>
