<svg width="21" height="20" viewBox="0 0 21 20" fill="none" xmlns="http://www.w3.org/2000/svg">
<path fill-rule="evenodd" clip-rule="evenodd" d="M13.9075 9.03388H14.2576C14.7317 9.03388 15.1134 8.89165 15.3907 8.61668C15.668 8.34171 15.8174 7.94347 15.8174 7.46227L15.8245 7.0024V6.99529C15.8245 5.24115 15.348 3.89236 14.407 2.98448C13.5015 2.10978 12.1858 1.6665 10.5005 1.6665C8.98573 1.6665 7.76495 2.02444 6.87603 2.73321C5.94681 3.47516 5.39213 4.58216 5.22619 6.02814C5.19775 6.28889 5.38264 6.52357 5.64339 6.55438C5.90414 6.58283 6.13882 6.39793 6.16963 6.13718C6.30475 4.94958 6.74091 4.05355 7.46864 3.47516C8.18452 2.90388 9.20619 2.61469 10.5005 2.61469C11.9322 2.61469 13.025 2.96788 13.7503 3.66717C14.497 4.38779 14.8763 5.50664 14.8763 6.99292L14.8692 7.45279V7.4599C14.8692 7.61398 14.8455 7.82495 14.7246 7.94347C14.6298 8.03829 14.4733 8.0857 14.2576 8.0857H14.1666C14.2069 7.82135 14.2273 7.53993 14.2273 7.24189C14.2273 4.84062 12.9022 3.5179 10.5033 3.5179C8.10438 3.5179 6.7793 4.84062 6.7793 7.24189C6.7793 9.64316 8.10201 10.9659 10.5033 10.9659C12.2168 10.9659 13.3812 10.2923 13.9075 9.03388ZM12.1299 9.03388C12.1055 9.07132 12.0776 9.10603 12.0463 9.13791C11.9088 9.27777 11.7002 9.35362 11.4584 9.35362C11.2166 9.35362 11.0128 9.28014 10.8753 9.13791C10.7378 8.99569 10.6667 8.80605 10.6667 8.56426C10.6667 8.07832 10.9701 7.7749 11.4608 7.7749C11.7599 7.7749 11.9894 7.88763 12.123 8.0857H13.2056C13.2545 7.83043 13.2791 7.54977 13.2791 7.24426C13.2791 6.29134 13.042 5.5802 12.5703 5.12744C12.1176 4.68654 11.423 4.46609 10.5033 4.46609C9.58592 4.46609 8.89137 4.68891 8.43624 5.12744C7.96689 5.5802 7.72748 6.29134 7.72748 7.24426C7.72748 8.19718 7.96452 8.90832 8.43624 9.36107C8.89137 9.79961 9.58592 10.0224 10.5033 10.0224C11.4206 10.0224 12.1152 9.79961 12.5703 9.36107C12.6711 9.26387 12.7613 9.15475 12.8407 9.03388H12.1299ZM3.33249 18.3329H17.6619C17.925 18.3329 18.136 18.1219 18.136 17.8588V16.4721C18.136 15.147 17.7211 14.0139 16.9342 13.1961C16.0784 12.3072 14.8079 11.8379 13.2623 11.8379H7.73205C6.18652 11.8379 4.91595 12.3072 4.06022 13.1961C3.27323 14.0139 2.8584 15.147 2.8584 16.4721V17.8588C2.8584 18.1196 3.07174 18.3329 3.33249 18.3329ZM17.1878 17.3847H3.80658V16.4721C3.80658 15.3959 4.13133 14.4904 4.74528 13.8551C5.42797 13.1464 6.43304 12.786 7.73442 12.786H13.2623C14.5637 12.786 15.5688 13.1464 16.2515 13.8551C16.863 14.4904 17.1878 15.3959 17.1878 16.4721V17.3847Z" fill="#50535A"/>
</svg>
