<svg width="32" height="33" viewBox="0 0 32 33" fill="none" xmlns="http://www.w3.org/2000/svg">
<path d="M25.185 4.59696C26.1848 4.43828 27.294 4.41561 28.1825 4.99058C29.4658 5.76751 30.1985 7.17506 30.7045 8.55582C32.1274 12.5374 32.263 16.8919 31.6659 21.0527C31.5323 22.1182 31.1315 23.3217 30.1054 23.806C29.4982 24.0141 28.7209 23.9585 28.2999 23.4103C27.6199 22.5736 27.8344 21.4195 27.8911 20.4242C28.1117 18.8518 28.1967 17.2567 28.1259 15.6719C28.1198 14.9485 27.881 14.1654 27.2717 13.7388C26.7576 13.3431 26.0148 13.4194 25.5048 13.7821C24.6405 14.353 24.0738 15.2721 23.6103 16.1871C22.4728 18.5715 21.8433 21.1578 20.9952 23.6535C20.5702 24.8137 19.884 25.9184 18.8659 26.6252C17.6455 27.5011 16.0951 27.7319 14.6337 27.6783C12.7676 27.5876 11.0876 26.3944 10.108 24.8158C8.8875 22.8065 7.8006 20.7147 6.60845 18.6889C6.22995 18.0995 5.7199 17.3453 4.93053 17.4318C4.10068 17.5101 3.78695 18.4561 3.81327 19.1856C3.87196 21.6854 5.06007 23.9626 5.48309 26.3965C5.63084 27.1466 5.42034 28.0884 4.67752 28.4284C4.22414 28.4923 3.7485 28.55 3.29916 28.4305C2.63933 28.175 2.29727 27.4805 2.00176 26.8766C0.971532 24.3624 0.329916 21.6936 0 18.996C0.0465526 17.6132 -0.080961 16.2118 0.206451 14.8476C0.599112 12.6218 1.20025 10.2663 2.82149 8.62177C4.21807 7.18125 6.62261 6.75259 8.31672 7.88811C9.96023 9.04836 10.9763 10.8495 12.0551 12.5147C12.8465 13.7965 13.5853 15.3051 15.0385 15.9212C16.0404 16.4179 17.3257 16.1129 18.0624 15.2783C18.5907 14.7239 18.8518 13.9841 19.1311 13.2813C19.7241 11.7687 20.3151 10.2581 20.9649 8.77015C21.7036 6.86388 23.1589 5.09156 25.185 4.59696Z" fill="white"/>
</svg>
