<svg width="40" height="40" viewBox="0 0 40 40" fill="none" xmlns="http://www.w3.org/2000/svg">
<path fill-rule="evenodd" clip-rule="evenodd" d="M7.26206 11.9832C7.06286 11.9876 6.9035 12.1514 6.90792 12.3506V30.9783C6.9035 31.1775 7.06286 31.3413 7.26206 31.3457H33.8535C34.0527 31.3413 34.212 31.1775 34.2076 30.9783V12.3506C34.212 12.1514 34.0527 11.9876 33.8535 11.9832H7.26206ZM33.849 33.3333H7.26206C6.01372 33.3333 5 32.2753 5 30.9783V12.3506C5 11.0536 6.01372 10 7.26206 10H33.8535C35.1018 10 36.1155 11.0536 36.1155 12.3506V30.9783C36.1111 32.2753 35.0974 33.3333 33.849 33.3333ZM19.0062 25.4537H9.14343C8.61664 25.4537 8.19168 25.0111 8.19168 24.4622C8.19168 23.9132 8.62107 23.4706 9.14343 23.4706H19.0062C19.533 23.4706 19.9579 23.9132 19.9579 24.4622C19.9579 25.0111 19.5286 25.4537 19.0062 25.4537ZM15.8367 20.1594H9.14343C8.61664 20.1594 8.18725 19.7167 8.18725 19.1678C8.18725 18.6189 8.61664 18.1762 9.14343 18.1762H15.8367C16.3634 18.1762 16.7928 18.6189 16.7928 19.1678C16.7884 19.7167 16.359 20.1594 15.8367 20.1594ZM27.3063 15.622C28.205 15.622 28.9088 15.8699 29.3957 16.3568C29.9004 16.8614 30.1571 17.614 30.1571 18.5879C30.1571 19.5618 29.9004 20.3099 29.3957 20.8189C28.9088 21.3059 28.205 21.5494 27.3063 21.5494C26.4077 21.5494 25.7039 21.3015 25.2213 20.8189C24.7167 20.3143 24.4644 19.5662 24.4644 18.5879C24.4644 17.614 24.7167 16.8659 25.2213 16.3612C25.7083 15.8654 26.4121 15.622 27.3063 15.622V15.622ZM27.3063 17.3395C27.0496 17.3395 26.5892 17.3705 26.3723 17.5919C26.151 17.8132 26.1155 18.3134 26.1155 18.5879C26.1155 18.8623 26.151 19.3581 26.3679 19.575C26.5317 19.7388 26.8637 19.8274 27.3063 19.8274C27.7534 19.8274 28.0899 19.7388 28.2537 19.575C28.475 19.3537 28.506 18.8623 28.506 18.5879C28.506 18.3134 28.475 17.8176 28.2492 17.5963C28.0279 17.3749 27.5675 17.3395 27.3063 17.3395V17.3395ZM29.046 22.842C30.0996 22.842 30.9672 23.1784 31.5516 23.807C32.0872 24.3869 32.3705 25.1926 32.3705 26.1355V27.1226C32.3705 27.3085 32.2244 27.4591 32.0474 27.4591H22.5786C22.3971 27.4591 22.251 27.3085 22.2554 27.127V26.1355C22.2554 25.1926 22.5387 24.3869 23.0699 23.807C23.6498 23.1784 24.5175 22.842 25.571 22.842H29.046V22.842ZM29.046 24.564H25.571C25.1549 24.564 24.5927 24.6392 24.2607 25.0022C24.0704 25.2103 23.9774 25.4803 23.9332 25.7415H30.6795C30.6441 25.467 30.5334 25.2103 30.3519 25.0022C30.0243 24.6392 29.4577 24.564 29.046 24.564Z" fill="#019DF4"/>
</svg>
