<svg width="24" height="23" viewBox="0 0 24 23" fill="none" xmlns="http://www.w3.org/2000/svg">
<g clip-path="url(#clip0_2944_125430)">
<g clip-path="url(#clip1_2944_125430)">
<path d="M7.27308 14.5106C5.60924 14.5106 4.30662 14.0702 3.40786 13.2036C2.47498 12.3029 2 10.9674 2 9.2399C2 7.51237 2.47498 6.17694 3.40786 5.27624C4.30662 4.40963 5.60924 3.96923 7.27308 3.96923C9.04784 3.96923 10.3419 4.39827 11.2293 5.28192C12.1167 6.16558 12.549 7.46122 12.549 9.2399C12.549 10.9703 12.074 12.3029 11.1411 13.2036C10.2395 14.0702 8.93976 14.5106 7.27308 14.5106ZM7.27308 5.10576C4.49149 5.10576 3.13767 6.45823 3.13767 9.2399C3.13767 12.0216 4.49149 13.374 7.27308 13.374C10.0547 13.374 11.4085 12.0216 11.4085 9.2399C11.4085 7.77945 11.0871 6.74805 10.4244 6.08602C9.76172 5.42399 8.73213 5.10576 7.27308 5.10576Z" fill="white"/>
<path d="M5.71465 11.26C5.6407 11.2089 5.60657 11.1521 5.60657 11.064C5.60941 10.9503 5.70327 10.8594 5.81704 10.8594C5.87108 10.8622 5.92512 10.8793 5.97062 10.9105C6.2977 11.1293 6.75561 11.3453 7.28747 11.3453C8.081 11.3453 8.56735 10.939 8.56735 10.3366C8.56735 9.8422 8.29146 9.49556 7.38133 9.37907L7.14811 9.35065C6.18109 9.22563 5.73171 8.7625 5.73171 8.04364C5.73171 7.18556 6.34321 6.65707 7.27894 6.65707C7.80227 6.65707 8.24596 6.7963 8.55028 6.98382C8.64414 7.04065 8.68965 7.11452 8.68965 7.18556C8.68965 7.29353 8.60432 7.38161 8.49624 7.38161H8.4934C8.4422 7.37877 8.39385 7.36456 8.34835 7.33899C8.01273 7.15714 7.66575 7.04917 7.26472 7.04917C6.54514 7.04917 6.14412 7.4498 6.14412 8.0067C6.14412 8.5153 6.45698 8.84205 7.30738 8.95002L7.53207 8.97844C8.51331 9.10061 8.97975 9.56659 8.97975 10.3082C8.97975 11.1435 8.38248 11.7402 7.23628 11.7402C6.6902 11.7345 6.16118 11.5669 5.71465 11.26Z" fill="white"/>
<path d="M7.23312 11.9528C6.64722 11.9471 6.07555 11.7681 5.59204 11.4328C5.45837 11.3391 5.39295 11.2141 5.39295 11.0635C5.39579 10.8305 5.58351 10.6458 5.81673 10.6458C5.91343 10.6486 6.00729 10.677 6.08692 10.731C6.48511 10.9953 6.88898 11.1317 7.28432 11.1317C7.94132 11.1317 8.35088 10.8276 8.35088 10.3361C8.35088 10.015 8.22858 9.69962 7.35258 9.58881L7.11935 9.5604C5.79398 9.38992 5.51525 8.6398 5.51525 8.04312C5.51525 7.07139 6.20638 6.44345 7.27578 6.44345C7.79342 6.44345 8.28546 6.57131 8.66089 6.80146C8.86851 6.92932 8.8998 7.09696 8.8998 7.18504C8.8998 7.40951 8.71493 7.59419 8.49024 7.59419C8.40491 7.59135 8.32243 7.56862 8.24849 7.52884L8.2428 7.526C7.91003 7.34415 7.60002 7.26176 7.26156 7.26176C6.69557 7.26176 6.35428 7.54021 6.35428 8.00619C6.35428 8.20224 6.35428 8.61423 7.33267 8.73925L7.55735 8.76766C8.90549 8.93815 9.1899 9.69962 9.1899 10.3077C9.1899 10.7935 9.01072 11.2055 8.67511 11.4982C8.33381 11.7937 7.83324 11.9528 7.23312 11.9528ZM5.83664 11.0862C5.95894 11.1714 6.08692 11.2425 6.22344 11.305C6.09546 11.2425 5.97031 11.1714 5.85086 11.089C5.84233 11.0834 5.83379 11.0805 5.82526 11.0777C5.82811 11.0777 5.83095 11.0805 5.83664 11.0862ZM7.75076 9.22796C8.20867 9.33593 8.51299 9.53483 8.66373 9.82464C8.47317 9.43254 8.05508 9.29047 7.75076 9.22796ZM5.99876 8.41534C6.11537 8.75346 6.40831 8.97508 6.88613 9.08589C6.41969 8.96656 6.1239 8.74494 5.99876 8.41534Z" fill="white"/>
<path d="M7.27317 12.7206C7.0371 12.7206 6.84654 12.5303 6.84654 12.2944V6.00371C6.84654 5.76788 7.0371 5.57751 7.27317 5.57751C7.50923 5.57751 7.69979 5.76788 7.69979 6.00371V12.2944C7.69979 12.5274 7.50923 12.7206 7.27317 12.7206Z" fill="white"/>
<path d="M14.5398 21.9973H7.90153C7.52894 21.9973 7.23315 21.8894 7.02268 21.6734C6.81221 21.4575 6.70413 21.1648 6.70413 20.7926V13.9421C6.70413 13.6296 6.96022 13.374 7.27308 13.374C7.58594 13.374 7.8418 13.6296 7.8418 13.9421V20.7955C7.8418 20.8182 7.8418 20.8381 7.84464 20.8608C7.85886 20.8608 7.87877 20.8636 7.90437 20.8636H20.8595V8.09751L15.9107 3.13654C13.0864 3.13654 8.60972 3.13654 7.90153 3.13938C7.87877 3.13938 7.85886 3.13938 7.84464 3.14222C7.84464 3.15642 7.8418 3.17063 7.8418 3.19336V4.54016C7.8418 4.8527 7.58582 5.10842 7.27296 5.10842C6.96011 5.10842 6.70413 4.8527 6.70413 4.54016V3.19336C6.70413 2.4603 7.16204 2.00568 7.89868 2.00568C8.62963 2 13.3453 2 16.1468 2C16.2975 2 16.4425 2.05967 16.5506 2.16764L21.8351 7.46105C21.9403 7.56618 22 7.71109 22 7.86168V20.8267C22 21.5484 21.5507 21.9973 20.8282 22.0002C20.4443 21.9973 17.5176 21.9973 14.5398 21.9973ZM18.9198 18.403H10.6006C10.2878 18.403 10.0318 18.1473 10.0318 17.8348C10.0318 17.5222 10.2878 17.2665 10.6006 17.2665H18.9198C19.2327 17.2665 19.4886 17.5222 19.4886 17.8348C19.4886 18.1473 19.2355 18.403 18.9198 18.403ZM18.9198 15.0787H11.7099C11.397 15.0787 11.141 14.823 11.141 14.5104C11.141 14.1979 11.397 13.9421 11.7099 13.9421H18.9198C19.2327 13.9421 19.4886 14.1979 19.4886 14.5104C19.4886 14.823 19.2355 15.0787 18.9198 15.0787ZM18.9198 11.2003H13.9283C13.6154 11.2003 13.3595 10.9445 13.3595 10.632C13.3595 10.3194 13.6154 10.0637 13.9283 10.0637H18.9198C19.2327 10.0637 19.4886 10.3194 19.4886 10.632C19.4886 10.9445 19.2355 11.2003 18.9198 11.2003Z" fill="white"/>
<path d="M21.4312 8.42955H18.2003C17.3299 8.42955 16.6274 8.09995 16.1695 7.4777C15.7799 6.94921 15.5808 6.23888 15.5779 5.36943V2.57072C15.5779 2.25818 15.8339 2.00246 16.1468 2.00246C16.2975 2.00246 16.4426 2.06212 16.5478 2.16725L21.8323 7.46065C22.0541 7.68228 22.0541 8.04313 21.8323 8.26475C21.727 8.36988 21.582 8.42955 21.4312 8.42955ZM16.7156 3.94309V5.36375C16.7156 5.98032 16.8436 6.47755 17.0853 6.80147C17.3271 7.12538 17.6912 7.29017 18.2003 7.29017H20.0603L16.7156 3.94309Z" fill="white"/>
</g>
</g>
<defs>
<clipPath id="clip0_2944_125430">
<rect width="24" height="23" fill="white"/>
</clipPath>
<clipPath id="clip1_2944_125430">
<rect width="24" height="24" fill="white"/>
</clipPath>
</defs>
</svg>
