<svg width="32" height="32" viewBox="0 0 32 32" fill="none" xmlns="http://www.w3.org/2000/svg">
<path d="M4.46929 12.4444C4.30784 12.4458 4.14887 12.408 4.00854 12.3348C3.90561 12.2818 3.81525 12.2106 3.74276 12.1252C3.67026 12.0399 3.61707 11.9421 3.58632 11.8377C3.55556 11.7333 3.54785 11.6243 3.56363 11.5171C3.57942 11.41 3.61838 11.3067 3.67824 11.2135C4.8319 9.4499 8.34193 5.3335 16.0011 5.3335C19.3202 5.3335 22.2313 6.132 24.6493 7.706C26.6394 8.99775 27.7548 10.46 28.2862 11.1642C28.3536 11.253 28.4009 11.3532 28.4253 11.459C28.4498 11.5647 28.4509 11.6739 28.4286 11.7801C28.4063 11.8863 28.361 11.9873 28.2955 12.0772C28.2299 12.1671 28.1454 12.2441 28.0468 12.3036C27.8454 12.4255 27.6001 12.4708 27.3628 12.4299C27.1256 12.389 26.9151 12.265 26.7759 12.0844C25.8143 10.8178 22.8823 6.96394 16.0011 6.96394C9.28436 6.96394 6.24764 10.5104 5.25853 12.0312C5.17906 12.1582 5.06401 12.2635 4.92526 12.3361C4.78651 12.4088 4.62909 12.4462 4.46929 12.4444Z" fill="#019AF1"/>
<path d="M19.7815 30.2222C19.7049 30.2231 19.6284 30.2144 19.5539 30.1962C13.9778 28.8069 11.8957 23.2002 11.8111 22.967L11.7978 22.9156C11.7522 22.7538 10.6334 18.909 12.3509 16.6572C13.1383 15.6303 14.3358 15.1036 15.917 15.1036C17.3871 15.1036 18.4477 15.5632 19.1768 16.5146C19.7773 17.2914 20.0175 18.2494 20.25 19.1724C20.7382 21.0945 21.0907 22.1038 23.12 22.2077C24.0112 22.253 24.5967 21.7287 24.9288 21.2823C25.8266 20.0652 25.9828 18.0809 25.306 16.3292C24.4364 14.0682 21.3502 9.80549 15.9086 9.80549C13.5857 9.80549 11.4513 10.5563 9.73977 11.9674C8.32308 13.1362 7.20065 14.7864 6.66016 16.4826C5.65785 19.6405 6.97245 24.6046 6.98506 24.6499C7.01575 24.7654 7.02314 24.8859 7.00678 25.0044C6.99042 25.1228 6.95065 25.2368 6.88981 25.3395C6.82897 25.4423 6.74829 25.5317 6.65253 25.6026C6.55678 25.6735 6.44788 25.7244 6.33226 25.7522C6.09869 25.8147 5.85007 25.7827 5.6397 25.663C5.42933 25.5433 5.27394 25.3455 5.20684 25.1119C5.14678 24.8854 3.7427 19.591 4.90056 15.9414C6.16171 11.9867 10.0539 8 15.9104 8C18.6171 8 21.1742 8.92539 23.3085 10.6729C24.9612 12.032 26.3113 13.8574 27.0175 15.6822C27.9153 18.012 27.6745 20.6269 26.4056 22.3352C25.56 23.4744 24.3559 24.07 23.0221 24.0053C19.5473 23.8302 18.9227 21.3904 18.4675 19.6109C17.9991 17.7855 17.6994 16.9054 15.9104 16.9054C14.9279 16.9054 14.2379 17.1772 13.8085 17.7402C13.2229 18.5104 13.1773 19.7142 13.2422 20.5877C13.2847 21.1962 13.3873 21.799 13.5484 22.3871C13.6914 22.7495 15.5525 27.3403 20.0097 28.4511C20.1249 28.4786 20.2336 28.5288 20.3293 28.5988C20.4251 28.6688 20.506 28.7573 20.5675 28.8591C20.629 28.9609 20.6697 29.0739 20.6874 29.1917C20.705 29.3094 20.6992 29.4295 20.6703 29.545C20.6159 29.74 20.4996 29.9117 20.3392 30.0339C20.1787 30.1562 19.9828 30.2223 19.7815 30.2222V30.2222Z" fill="#019AF1"/>
<path d="M12.7221 29.3334C12.5969 29.3337 12.4729 29.3094 12.3576 29.262C12.2423 29.2146 12.1379 29.1451 12.0508 29.0576C9.81546 26.7739 8.55102 24.2203 8.07521 21.0272V21.0102C7.80812 18.8963 8.19913 15.9035 10.115 13.8458C11.5292 12.3274 13.5173 11.5557 16.0137 11.5557C18.9661 11.5557 21.2862 12.8919 22.7329 15.414C23.7826 17.2462 23.9907 19.072 23.9961 19.1469C24.0071 19.2625 23.9946 19.379 23.9593 19.4899C23.924 19.6007 23.8665 19.7037 23.7902 19.7929C23.714 19.8821 23.6204 19.9558 23.5148 20.0097C23.4092 20.0637 23.2938 20.0968 23.175 20.1073C22.9354 20.1326 22.6952 20.0652 22.5063 19.9196C22.3173 19.774 22.1948 19.5619 22.165 19.329C22.0066 18.2335 21.6424 17.1758 21.0907 16.2086C19.9694 14.2826 18.2635 13.3036 16.0071 13.3036C14.0581 13.3036 12.5332 13.8745 11.4841 15.0017C9.97186 16.6267 9.67951 19.13 9.88704 20.7859C10.3039 23.6095 11.4186 25.8558 13.3868 27.8631C13.4689 27.9463 13.5331 28.0447 13.5754 28.1525C13.6177 28.2603 13.6373 28.3753 13.633 28.4906C13.6287 28.6059 13.6007 28.7192 13.5505 28.8238C13.5004 28.9283 13.4292 29.022 13.3411 29.0992C13.1715 29.2489 12.951 29.3323 12.7221 29.3334V29.3334Z" fill="#019AF1"/>
<path d="M23.6128 27.5556C21.6074 27.5556 19.9025 27.0163 18.5382 25.9443C15.7974 23.7996 15.4901 20.3067 15.4765 20.1593C15.4572 19.9173 15.5376 19.6778 15.7002 19.4935C15.8627 19.3091 16.094 19.195 16.3431 19.1762C16.5923 19.1575 16.8389 19.2356 17.0287 19.3935C17.2186 19.5513 17.3361 19.7759 17.3554 20.0179C17.3622 20.0694 17.6361 22.9265 19.7489 24.572C20.999 25.5416 22.6699 25.9263 24.729 25.7016C24.9751 25.6726 25.223 25.7394 25.4185 25.8874C25.614 26.0354 25.7412 26.2525 25.7724 26.4914C25.7859 26.6094 25.775 26.7288 25.7405 26.8426C25.7059 26.9565 25.6484 27.0625 25.5712 27.1546C25.494 27.2466 25.3987 27.3228 25.2908 27.3787C25.183 27.4346 25.0648 27.4691 24.9431 27.4801C24.5015 27.5301 24.0573 27.5554 23.6128 27.5556V27.5556ZM25.1973 3.74271C24.4149 3.24835 21.6407 1.77783 16.4243 1.77783C10.9487 1.77783 8.1677 3.40235 7.55251 3.81522C7.51188 3.83944 7.47385 3.86755 7.43897 3.89911C7.4353 3.90257 7.4305 3.90469 7.4254 3.90511C7.32716 3.9884 7.24834 4.09108 7.19418 4.20629C7.14002 4.3215 7.11178 4.4466 7.11133 4.57325C7.11302 4.69197 7.13881 4.8092 7.18723 4.91822C7.23565 5.02724 7.30575 5.12591 7.39351 5.20857C7.48127 5.29124 7.58496 5.35627 7.69864 5.39995C7.81233 5.44363 7.93377 5.46509 8.05601 5.46311C8.25194 5.46298 8.44314 5.40464 8.60394 5.29593C8.63047 5.27675 11.024 3.56894 16.4261 3.56894C21.8283 3.56894 24.2347 5.27076 24.2606 5.28334C24.4249 5.40165 24.6244 5.46476 24.8289 5.46311C24.9513 5.46493 25.0728 5.44327 25.1865 5.39937C25.3002 5.35547 25.4038 5.2902 25.4915 5.2073C25.5792 5.1244 25.6491 5.0255 25.6973 4.91628C25.7455 4.80706 25.771 4.68967 25.7724 4.57085C25.7724 4.39287 25.7177 4.21894 25.6152 4.07138C25.5128 3.92382 25.3672 3.80937 25.1973 3.74271V3.74271Z" fill="#019AF1"/>
</svg>
