<svg width="20" height="21" viewBox="0 0 20 21" fill="none" xmlns="http://www.w3.org/2000/svg">
<path d="M14.7693 18.8332C14.0356 18.8332 13.195 18.6527 12.2904 18.2917C10.4407 17.5532 8.41533 16.1164 6.43507 14.1358L6.43032 14.1311L6.36621 14.0693L6.36146 14.0646C4.3812 12.084 2.94468 10.0583 2.20624 8.2083C1.50342 6.43669 1.4868 4.92394 2.16113 3.9479L2.17538 3.92653L2.18487 3.91228C2.26798 3.79829 2.51492 3.45394 2.77373 3.20696C3.50979 2.50402 4.26248 2.15492 5.00567 2.1668C5.72275 2.18105 6.43269 2.53252 7.11415 3.21409C7.37059 3.46581 7.59616 3.75079 7.78136 4.06189C8.14702 4.65084 8.27999 5.25879 8.17551 5.86912C8.07104 6.47944 7.7315 7.07552 7.16164 7.64547C7.02867 7.77846 6.88858 7.90432 6.74137 8.02069C6.68676 8.12043 6.72 8.43391 7.16164 9.07985C7.67214 9.82554 8.52692 10.7066 9.12528 11.305L9.19651 11.3763C9.79486 11.9747 10.6758 12.8273 11.4213 13.3403C12.0648 13.782 12.3806 13.8152 12.4803 13.7606C12.5967 13.6134 12.7201 13.4732 12.8555 13.3403C13.4253 12.7703 14.0213 12.4307 14.6315 12.3262C15.2418 12.2217 15.8496 12.3547 16.4385 12.7204C16.7471 12.9057 17.0321 13.1289 17.2861 13.3877C17.9676 14.0693 18.319 14.777 18.3332 15.4966C18.3475 16.2399 17.9985 16.9927 17.2933 17.7289C17.0463 17.9877 16.702 18.2347 16.588 18.3178L16.5738 18.3273C16.5667 18.3321 16.5596 18.3368 16.5524 18.344C16.0728 18.6693 15.4673 18.8332 14.7693 18.8332V18.8332ZM7.10703 13.4685C8.99468 15.3565 10.9085 16.7196 12.6394 17.4107C14.0783 17.983 15.3035 18.0376 16.0016 17.5627L16.0301 17.5437C16.2865 17.3584 16.4788 17.1993 16.6023 17.0711C17.6375 15.9882 17.6399 15.0857 16.6094 14.0574C16.4123 13.8556 16.1915 13.6822 15.9517 13.5374L15.9375 13.5302C15.5433 13.2856 15.1658 13.1978 14.7859 13.2619C14.3751 13.3308 13.9501 13.5825 13.5227 14.0099C13.4016 14.1287 13.29 14.2546 13.1879 14.3899C13.1713 14.4089 13.1547 14.4279 13.138 14.4445C12.9362 14.6321 12.5729 14.8245 11.9983 14.6773C11.673 14.5941 11.3074 14.4137 10.8823 14.1216C10.0727 13.5659 9.14902 12.6706 8.52455 12.046L8.45332 11.9747C7.82885 11.3502 6.93369 10.4264 6.37808 9.61418C6.08603 9.18909 5.9032 8.82337 5.82247 8.49802C5.67763 7.92332 5.86996 7.55998 6.05516 7.35812C6.07178 7.33912 6.09078 7.3225 6.10977 7.30825C6.24512 7.20613 6.37096 7.09452 6.48968 6.9734C6.91707 6.54594 7.16876 6.12085 7.23762 5.71C7.30173 5.32766 7.21388 4.95244 6.96931 4.55822L6.96219 4.54398C6.81735 4.30412 6.64402 4.08089 6.44219 3.88615C5.41407 2.85786 4.5118 2.86024 3.42906 3.89565C3.30085 4.01914 3.14176 4.2115 2.95656 4.46798L2.93519 4.49648C2.4603 5.19467 2.51729 6.42007 3.08952 7.8592C3.78048 9.59043 5.14339 11.5045 7.03105 13.3925L7.06429 13.4257L7.07378 13.4352L7.10703 13.4685V13.4685Z" fill="#50535A"/>
</svg>
