<svg width="36" height="36" viewBox="0 0 36 36" fill="none" xmlns="http://www.w3.org/2000/svg">
<path fill-rule="evenodd" clip-rule="evenodd" d="M23.3975 4.79104H11.472C9.99014 4.79104 8.78882 5.99386 8.78882 7.47761V25.3881C8.78882 26.8718 9.99014 28.0746 11.472 28.0746H23.3975C24.8794 28.0746 26.0807 26.8718 26.0807 25.3881V7.47761C26.0807 5.99386 24.8794 4.79104 23.3975 4.79104ZM11.472 3C9.0022 3 7 5.0047 7 7.47761V25.3881C7 27.861 9.00221 29.8657 11.472 29.8657H23.3975C25.8674 29.8657 27.8696 27.861 27.8696 25.3881V7.47761C27.8696 5.0047 25.8674 3 23.3975 3H11.472Z" fill="#019DF4"/>
<path fill-rule="evenodd" clip-rule="evenodd" d="M30.1056 11.0597C30.5996 11.0597 31 11.4606 31 11.9552V22.403C31 22.8976 30.5996 23.2985 30.1056 23.2985C29.6116 23.2985 29.2112 22.8976 29.2112 22.403V11.9552C29.2112 11.4606 29.6116 11.0597 30.1056 11.0597Z" fill="#019DF4"/>
<path fill-rule="evenodd" clip-rule="evenodd" d="M23.5466 32.1045C23.5466 32.5991 23.1461 33 22.6522 33H12.2174C11.7234 33 11.323 32.5991 11.323 32.1045C11.323 31.6099 11.7234 31.209 12.2174 31.209H22.6522C23.1461 31.209 23.5466 31.6099 23.5466 32.1045Z" fill="#019DF4"/>
<path fill-rule="evenodd" clip-rule="evenodd" d="M21.9068 8.97015H12.9627V13.4478H21.9068V8.97015ZM12.9627 7.47761C12.1395 7.47761 11.472 8.14584 11.472 8.97015V13.4478C11.472 14.2721 12.1395 14.9403 12.9627 14.9403H21.9068C22.7301 14.9403 23.3975 14.2721 23.3975 13.4478V8.97015C23.3975 8.14584 22.7301 7.47761 21.9068 7.47761H12.9627Z" fill="#019DF4"/>
<path fill-rule="evenodd" clip-rule="evenodd" d="M11.323 18.6716C11.323 18.1771 11.7234 17.7761 12.2174 17.7761H15.1988C15.6927 17.7761 16.0932 18.1771 16.0932 18.6716C16.0932 19.1662 15.6927 19.5672 15.1988 19.5672H12.2174C11.7234 19.5672 11.323 19.1662 11.323 18.6716Z" fill="#019DF4"/>
<path fill-rule="evenodd" clip-rule="evenodd" d="M18.7764 18.6716C18.7764 18.1771 19.1768 17.7761 19.6708 17.7761H22.6522C23.1461 17.7761 23.5466 18.1771 23.5466 18.6716C23.5466 19.1662 23.1461 19.5672 22.6522 19.5672H19.6708C19.1768 19.5672 18.7764 19.1662 18.7764 18.6716Z" fill="#019DF4"/>
<path fill-rule="evenodd" clip-rule="evenodd" d="M11.323 22.403C11.323 21.9084 11.7234 21.5075 12.2174 21.5075H15.1988C15.6927 21.5075 16.0932 21.9084 16.0932 22.403C16.0932 22.8976 15.6927 23.2985 15.1988 23.2985H12.2174C11.7234 23.2985 11.323 22.8976 11.323 22.403Z" fill="#019DF4"/>
<path fill-rule="evenodd" clip-rule="evenodd" d="M18.7764 22.403C18.7764 21.9084 19.1768 21.5075 19.6708 21.5075H22.6522C23.1461 21.5075 23.5466 21.9084 23.5466 22.403C23.5466 22.8976 23.1461 23.2985 22.6522 23.2985H19.6708C19.1768 23.2985 18.7764 22.8976 18.7764 22.403Z" fill="#019DF4"/>
</svg>
