<svg width="24" height="23" viewBox="0 0 24 23" fill="none" xmlns="http://www.w3.org/2000/svg">
<g clip-path="url(#clip0_2944_125779)">
<g clip-path="url(#clip1_2944_125779)">
<path fill-rule="evenodd" clip-rule="evenodd" d="M21.7642 8.84265V12.6245C21.7642 12.6555 21.7501 12.678 21.7473 12.7089V17.3681C21.7473 18.175 21.0781 18.833 20.2571 18.833H3.50432C2.68046 18.833 2.01125 18.175 2.01125 17.3681V12.6723C2.00844 12.6555 2 12.6414 2 12.6245V8.84265C2 8.82578 2.00844 8.81172 2.01125 8.79485V6.29796C2.01125 5.48816 2.68046 4.83301 3.50432 4.83301H20.2571C21.0781 4.83301 21.7473 5.48816 21.7473 6.29796V8.75829C21.7501 8.78641 21.7642 8.81172 21.7642 8.84265ZM20.2571 17.593C20.3836 17.593 20.4876 17.4918 20.4905 17.3652V13.2431H3.27094V17.3681C3.27094 17.4946 3.37779 17.5986 3.50432 17.5958C3.50432 17.593 20.2571 17.593 20.2571 17.593ZM3.50432 6.0702C3.37779 6.06739 3.27094 6.17143 3.27094 6.29796V8.22405H20.4876V6.29796C20.4876 6.17143 20.3836 6.0702 20.2543 6.0702H3.50432ZM3.27094 12.0059H20.4876V9.46125H3.27094V12.0059Z" fill="white"/>
</g>
</g>
<defs>
<clipPath id="clip0_2944_125779">
<rect width="24" height="23" fill="white"/>
</clipPath>
<clipPath id="clip1_2944_125779">
<rect width="24" height="23" fill="white" transform="translate(0 -0.166992)"/>
</clipPath>
</defs>
</svg>
